<?xml version="1.0" encoding="UTF-8" standalone="no"?>
<svg version="1.0" xmlns="http://www.w3.org/2000/svg" width="358.5" height="460" viewBox="0 0 358.5 460">
	<path id="shadow" fill="#c65337" d="m 188.25,17.5 c 38,0 36.5,0 38.78,8.5 l 100.32,374 c 2.816,10.5 11.4,42.5 -27.1,42.5 h -224 c -38.5,0 -29.916,-32 -27.1,-42.5 L 149.47,26 c 2.28,-8.5 0.78,-8.5 38.78,-8.5 z" />
	<path id="inside" fill="#fff" d="m 165.75,22.5 c 37.11,0 35.64364,-4e-6 37.87,8.3 L 301.58,396 c 2.75,10.25 11.13,41.5 -26.46,41.5 H 56.39 C 18.8,437.5 27.19,406.25 29.93,396 L 127.88,30.8 c 2.22614,-8.3 0.76,-8.3 37.87,-8.3 z" />
	<path id="body" fill="#e7754e" d="m 165.75,17.5 c 38,0 36.5,0 38.78,8.5 l 100.32,374 c 2.816,10.5 11.4,42.5 -27.1,42.5 h -224 c -38.5,0 -29.916,-32 -27.1,-42.5 L 126.97,26 c 2.28,-8.5 0.78,-8.5 38.78,-8.5 z M 135.89,35.86 60.68,316.24 c -2.12,7.91 -8.58,32.1 20.47,32.1 h 169.2 c 29.05,0 22.59,-24.19 20.47,-32.1 L 195.61,35.86 c -2.29,-8.54 -1.155,-8.54 -29.86,-8.54 -28.71,0 -27.57,2e-4 -29.86,8.54 z m 98.36,337.64 h -137 c -23,0 -23,41 0,41 h 137 c 23,0 23,-41 0,-41 z" />
	<path id="marks" fill="#93aec3" d="m 159.75,61.5 h 12 v 10.32 h -12 z m 0,20.64 h 12 v 10.32 h -12 z m 0,20.64 h 12 v 10.32 h -12 z m 0,20.64 h 12 v 10.32 h -12 z m 0,20.64 h 12 v 10.32 h -12 z m 0,20.64 h 12 v 10.32 h -12 z m 0,20.64 h 12 v 10.32 h -12 z m 0,20.64 h 12 v 10.32 h -12 z m 0,20.64 h 12 v 10.32 h -12 z m 0,20.64 h 12 v 10.32 h -12 z m 0,20.64 h 12 v 10.32 h -12 z m 0,20.64 h 12 v 10.32 h -12 z m 0,20.64 h 12 v 10.32 h -12 z" />
	<g id="pendulum" transform="rotate(25,165,397)">
		<path id="rod" fill="#f8c35c" d="M 159.75,363 V 61.5 c 0,-12 12,-12 12,0 V 363 Z" />
		<path id="weight" fill="#6cbcb2" d="m 155.75,159.5 c -2.5,0 -2.85,0.1 -3,-1 -1,-7 -3,-15 -3.25,-23.5 -0.1,-3.5 2.25,-3.5 2.25,-3.5 h 28 c 0,0 2.35,-0.01 2.25,3.5 -0.25,8.5 -2.25,16.5 -3.25,23.5 -0.15,1.1 -0.5,1 -3,1 z" />
		<animateTransform attributeName="transform" attributeType="XML" type="rotate" repeatCount="indefinite" calcMode="spline"
			dur="1.8s"
			values="25 165 397;-25 165 397;25 165 397"
			keyTimes="0; 0.5; 1"
			keySplines=".65 0 .35 1;.65 0 .35 1" />
	</g>
	<path id="hiddenstrip" fill="#e7754e" d="m 286.75,373.5 h -242 v -25.16 h 242 z" />
</svg>
